<?xml version="1.0" standalone="no"?>
<!DOCTYPE svg PUBLIC "-//W3C//DTD SVG 20010904//EN"
 "http://www.w3.org/TR/2001/REC-SVG-20010904/DTD/svg10.dtd">
<svg version="1.0" xmlns="http://www.w3.org/2000/svg"
 width="200.000000pt" height="200.000000pt" viewBox="0 0 200.000000 200.000000"
 preserveAspectRatio="xMidYMid meet">
<metadata>
Created by potrace 1.14, written by Peter Selinger 2001-2017
</metadata>
<g transform="translate(0.000000,200.000000) scale(0.100000,-0.100000)"
fill="#000000" stroke="none">
<path d="M921 1607 c-61 -26 -75 -37 -78 -57 -2 -19 -1 -21 7 -10 7 12 12 12
21 3 10 -10 9 -31 -1 -96 l-13 -84 36 -56 c74 -115 151 -114 222 3 36 59 36
61 26 117 -5 32 -13 69 -16 84 -5 21 -2 27 21 38 16 7 23 16 18 21 -10 10
-153 70 -163 69 -3 0 -39 -15 -80 -32z m185 -183 c3 -13 10 -24 15 -24 12 0
11 -37 -1 -45 -6 -4 -19 -24 -31 -46 -27 -53 -74 -77 -115 -58 -29 14 -94 102
-94 127 0 8 9 27 21 43 21 30 22 30 110 28 85 -2 90 -3 95 -25z"/>
<path d="M841 1466 c0 -35 3 -56 8 -50 4 5 5 32 1 59 l-7 50 -2 -59z"/>
<path d="M455 1481 c-47 -22 -55 -29 -41 -34 17 -7 18 -15 13 -80 -6 -67 -5
-75 21 -112 52 -75 105 -71 155 11 26 44 27 49 17 106 -10 54 -9 61 7 73 16
12 14 15 -27 33 -74 31 -82 32 -145 3z m95 -111 c43 0 49 -3 60 -29 10 -26 9
-34 -15 -70 -32 -51 -66 -69 -98 -52 -28 15 -67 74 -67 101 0 26 37 63 57 56
8 -3 36 -6 63 -6z"/>
<path d="M1423 1482 c-54 -21 -60 -27 -46 -37 13 -10 15 -23 9 -78 -7 -70 0
-90 48 -144 37 -43 93 -25 131 42 13 23 9 20 -20 -12 -53 -62 -99 -55 -139 21
-16 30 -17 39 -6 66 13 31 13 31 83 28 68 -3 70 -4 89 -38 l20 -35 -6 35 c-3
19 -8 51 -11 71 -5 29 -3 37 14 45 18 8 13 12 -42 35 l-62 25 -62 -24z"/>
<path d="M1362 1370 c0 -19 2 -27 5 -17 2 9 2 25 0 35 -3 9 -5 1 -5 -18z"/>
<path d="M402 1365 c0 -16 2 -22 5 -12 2 9 2 23 0 30 -3 6 -5 -1 -5 -18z"/>
<path d="M788 1194 c-15 -8 -35 -28 -43 -45 l-16 -30 -22 32 c-28 41 -86 58
-120 34 -27 -19 -106 -20 -132 -1 -34 23 -95 7 -122 -33 -13 -19 -23 -38 -23
-42 0 -5 90 -9 200 -9 127 0 200 -4 200 -10 0 -6 103 -10 290 -10 187 0 290 4
290 10 0 6 73 10 200 10 110 0 200 4 200 9 0 4 -10 23 -23 42 -27 40 -88 56
-122 33 -26 -18 -105 -18 -131 1 -32 22 -89 9 -120 -28 -21 -25 -27 -28 -35
-16 -5 8 -9 17 -9 22 0 4 -15 16 -32 27 -40 24 -100 26 -134 3 -17 -10 -46
-16 -84 -16 -38 0 -67 6 -84 16 -31 21 -92 21 -128 1z"/>
<path d="M953 1029 c-18 -5 -33 -14 -33 -20 0 -7 10 -8 28 -3 35 10 81 11 110
1 13 -5 22 -4 22 1 0 11 -54 32 -79 31 -9 0 -31 -5 -48 -10z"/>
<path d="M963 993 c-7 -2 -13 -9 -13 -14 0 -5 11 -4 24 2 18 8 33 8 55 1 17
-6 31 -7 31 -3 0 18 -65 27 -97 14z"/>
<path d="M980 963 c-52 -19 -69 -94 -30 -133 46 -46 130 -9 130 58 0 30 -28
72 -49 72 -5 0 -15 2 -23 4 -7 3 -20 2 -28 -1z m64 -28 c36 -37 23 -95 -25
-110 -29 -9 -73 24 -77 58 -6 51 66 88 102 52z"/>
<path d="M956 787 c20 -11 83 -12 94 0 5 4 -18 8 -50 8 -40 1 -55 -2 -44 -8z"/>
<path d="M295 780 c8 -14 405 -14 405 0 0 6 -75 10 -206 10 -134 0 -203 -3
-199 -10z"/>
<path d="M1300 780 c0 -6 73 -10 199 -10 123 0 202 4 206 10 4 7 -65 10 -199
10 -131 0 -206 -4 -206 -10z"/>
<path d="M1063 769 c-14 -14 -79 -16 -118 -4 -26 7 -28 6 -17 -7 24 -29 138
-28 157 2 8 13 -10 21 -22 9z"/>
<path d="M718 569 c2 -79 7 -139 13 -139 15 0 12 255 -3 268 -10 8 -12 -18
-10 -129z"/>
<path d="M340 566 c0 -166 24 -181 32 -21 2 37 7 50 18 50 12 0 15 -15 15 -75
0 -67 -2 -75 -19 -72 -11 2 -15 -1 -11 -7 10 -16 42 -13 49 5 9 24 7 147 -3
163 -5 8 -18 12 -30 8 -19 -5 -21 -1 -21 34 0 28 -4 39 -15 39 -13 0 -15 -20
-15 -124z"/>
<path d="M1028 560 c3 -134 22 -186 22 -61 0 78 6 101 26 101 10 0 14 -21 16
-82 2 -47 7 -83 13 -83 13 0 18 90 7 140 -7 35 -12 40 -35 40 -25 -1 -27 3
-27 37 0 24 -5 38 -12 38 -10 0 -12 -31 -10 -130z"/>
<path d="M1610 641 c0 -11 -6 -21 -12 -24 -10 -4 -10 -7 0 -18 7 -8 12 -41 12
-86 0 -57 3 -75 15 -80 9 -3 19 -2 23 2 4 4 1 10 -5 12 -9 3 -13 28 -13 78 0
49 4 75 13 79 10 5 10 7 0 12 -7 3 -13 14 -13 25 0 10 -4 19 -10 19 -5 0 -10
-9 -10 -19z"/>
<path d="M30 603 c0 -10 6 -51 14 -91 21 -108 30 -111 48 -11 12 69 19 63 32
-24 11 -73 29 -53 47 51 13 73 13 92 3 92 -8 0 -15 -23 -20 -66 -7 -74 -18
-69 -29 14 -10 76 -32 69 -41 -14 -7 -74 -18 -69 -29 14 -6 48 -25 74 -25 35z"/>
<path d="M220 584 c-12 -35 -8 -122 5 -144 10 -16 62 -12 69 6 9 23 7 34 -4
34 -5 0 -10 -6 -10 -14 0 -15 -24 -28 -34 -19 -3 4 -6 19 -6 35 0 24 4 28 30
28 29 0 30 2 30 43 0 48 -13 67 -46 67 -17 0 -25 -9 -34 -36z m58 -22 c3 -27
0 -32 -17 -32 -16 0 -21 6 -21 28 0 53 33 56 38 4z"/>
<path d="M482 608 c-22 -22 -14 -63 18 -93 18 -17 30 -38 28 -49 -4 -27 -28
-32 -35 -7 -6 23 -23 29 -23 9 0 -26 18 -40 46 -36 25 3 29 8 32 39 3 31 -2
40 -27 59 -31 22 -40 53 -19 66 6 4 17 -1 24 -11 17 -23 32 -11 18 13 -14 21
-45 27 -62 10z"/>
<path d="M590 497 c0 -78 4 -127 10 -127 11 0 14 50 11 140 -3 62 20 108 39
80 15 -23 12 -125 -3 -139 -8 -6 -18 -7 -22 -3 -5 4 -5 1 -1 -5 11 -19 34 -16
46 6 17 32 13 146 -6 162 -12 10 -20 10 -34 2 -13 -9 -20 -9 -29 0 -8 8 -11
-22 -11 -116z"/>
<path d="M791 606 c-11 -13 -8 -15 16 -13 24 2 28 -2 31 -25 3 -24 0 -28 -21
-28 -26 0 -37 -16 -37 -55 0 -51 29 -72 58 -43 9 9 12 9 12 -1 0 -7 5 -9 10
-6 11 7 12 116 1 155 -8 30 -51 39 -70 16z m44 -119 c0 -40 -12 -51 -28 -26
-13 20 0 72 16 66 7 -2 12 -20 12 -40z"/>
<path d="M911 598 c-11 -29 3 -65 34 -90 28 -22 32 -40 11 -57 -11 -10 -17 -7
-30 10 -19 28 -32 19 -16 -10 12 -23 49 -28 68 -9 20 20 13 53 -18 83 -29 28
-41 75 -19 75 7 0 18 -8 25 -17 17 -24 29 -10 14 16 -15 29 -58 28 -69 -1z"/>
<path d="M1160 594 c-6 -14 -10 -45 -10 -69 0 -64 14 -95 44 -95 27 0 52 32
40 51 -4 6 -11 2 -18 -11 -21 -42 -31 -26 -34 53 -3 80 7 96 34 60 17 -24 29
-10 14 16 -16 31 -58 28 -70 -5z"/>
<path d="M1270 525 c0 -52 4 -95 9 -95 10 0 22 140 14 170 -12 47 -23 13 -23
-75z"/>
<path d="M1305 609 c-4 -6 -5 -13 -2 -16 7 -7 27 6 27 18 0 12 -17 12 -25 -2z"/>
<path d="M1360 594 c-6 -14 -10 -45 -10 -69 0 -63 15 -95 43 -95 13 0 28 5 35
12 15 15 16 38 2 38 -5 0 -10 -6 -10 -14 0 -15 -24 -28 -34 -19 -3 4 -6 19 -6
35 0 24 4 28 30 28 29 0 30 2 30 43 0 48 -13 67 -47 67 -16 0 -27 -8 -33 -26z
m58 -32 c3 -27 0 -32 -17 -32 -16 0 -21 6 -21 28 0 53 33 56 38 4z"/>
<path d="M1493 613 c-23 -9 -14 -22 15 -20 23 2 27 -2 30 -28 3 -28 0 -31 -25
-30 -26 0 -28 -3 -31 -48 -3 -52 15 -70 49 -49 13 9 19 8 22 -1 3 -7 6 26 6
74 1 101 -14 124 -66 102z m47 -128 c0 -24 -22 -49 -33 -38 -4 3 -7 21 -7 38
0 17 3 35 7 38 11 11 33 -14 33 -38z"/>
<path d="M1692 608 c-7 -7 -12 -41 -12 -83 0 -76 9 -95 47 -95 30 0 43 28 43
95 0 31 -5 65 -10 76 -12 21 -50 25 -68 7z m52 -30 c9 -35 7 -84 -4 -113 -9
-23 -13 -25 -25 -15 -15 13 -21 102 -9 134 9 23 31 19 38 -6z"/>
<path d="M1810 528 c0 -59 4 -98 10 -98 6 0 10 30 10 70 0 57 4 74 20 90 11
11 20 22 20 25 0 11 -29 4 -33 -7 -4 -10 -8 -9 -16 2 -8 11 -11 -11 -11 -82z"/>
<path d="M1902 608 c-23 -23 -14 -66 18 -90 27 -20 39 -55 24 -71 -10 -9 -34
4 -34 19 0 8 -4 14 -10 14 -15 0 -12 -26 4 -40 8 -6 25 -10 38 -8 18 2 24 10
26 37 3 27 -2 39 -27 62 -17 15 -31 35 -31 43 0 23 22 31 35 13 17 -24 27 -21
23 6 -3 25 -45 36 -66 15z"/>
</g>
</svg>
